<?xml version="1.0" encoding="utf-8"?>
<!-- Generator: Adobe Illustrator 21.1.0, SVG Export Plug-In . SVG Version: 6.00 Build 0)  -->
<svg version="1.1" id="圖層_1" xmlns="http://www.w3.org/2000/svg" xmlns:xlink="http://www.w3.org/1999/xlink" x="0px" y="0px"
	 viewBox="0 0 165.3 211" style="enable-background:new 0 0 165.3 211;" xml:space="preserve">
<style type="text/css">
	.st0{fill:#FFFFFF;}
</style>
<g>
	<path class="st0" d="M132.4,62.8c-0.5,0.4-1.1,0.7-1.9,1.4c2.2,0.4,4.4-0.1,5.2,1.9c0.1,0.2,1.6-0.1,2.1,0.2
		c1.9,1.1,3.7,2.4,5.5,3.7c0.5,0.3,0.9,0.7,1.5,1.1c-0.2-2.7-0.3-5.3-0.5-7.8c0.2,0,0.3-0.1,0.5-0.1c0.2,0.2,0.4,0.4,0.5,0.7
		c0.9,2.9,1.7,5.8,2.5,8.7c0.1,0.5-0.2,1.2-0.3,1.7c-0.5-0.3-1.1-0.5-1.6-0.8c-2.4-1.5-4.8-2.8-7-4.5c-4.7-3.6-10.3-3.9-16.2-3.9
		c-13.3,0.1-26.5-0.1-39.8,0c-4.4,0-8.8,0.6-13.3,0.9c-1.6,0.1-3.2,0-4.8,0c-6.8,0-13.7-0.1-20.5,0c-0.8,0-1.7,0.5-2.5,0.7
		c0,0.2,0,0.4,0,0.6C46.3,68,51,68.6,55,69c-3.8,0.9-8.3,0.2-12.8-0.5c-1.6-0.2-3.1-0.4-4.7-0.4c-3.3-0.1-5.1,2-7.2,3.7
		c-3.9,3.2-7.7,6.4-11.4,9.7c-0.7,0.6-1.2,1.5-1.5,2.4c-0.6,1.5-1.4,3.1-1.2,4.6c0.2,1.2,1.6,2.4,2.5,3.6c0.3,0,0.5-0.1,0.8-0.1
		c0-1.9,0-3.8,0-6.1c-0.9,0.6-1.3,0.8-1.9,1.2c-0.8-1.6,0.6-2.4,1.5-3.2c3-2.7,6-5.4,9.3-7.7c1.4-1,3.6-1,5.4-1.6
		c3.7-1.3,7.6-1.7,11.2-0.9c3.9,0.9,7.8,1,11.8,1.1c7.4,0.1,14.7,0.3,22.1,0.3c6.6-0.1,13.2-0.4,19.8-0.7c2.2-0.1,4.4-0.6,6.7-0.7
		c3.1-0.3,6.3-0.4,9.4-0.6c3.5-0.2,7-0.3,10.5-0.7c2.5-0.3,4.9-1.2,7.5-1.6c1.3-0.2,2.9-0.1,3.9,0.4c2.6,1.4,5,3.1,7.4,4.8
		c2.5,1.7,2.2,4.4,3,7.1c0.5-0.8,0.8-1.3,1.1-1.8c0.1,0,0.3,0.1,0.4,0.1c-0.2,0.9-0.1,1.9-0.6,2.8c-1.3,2.4-1.3,5.5,0.3,7
		c2.5,2.3,1.7,4.8,2,7.2c0.6,5.4,0.5,10.9,0.8,16.4c0,0.9,0.5,1.8,0.8,2.8c0.1,0.2,0.2,0.6,0,0.8c-3.3,4-2.4,9-3.8,13.4
		c-2.1,6.5-2,13.4-5.4,19.7c-1.8,3.4-4.1,6.3-8.3,7.8c-0.9,0.3-1.5,1.1-2.3,1.6c-0.2-0.2-0.4-0.4-0.5-0.6c1.2-0.8,2.4-1.7,3.6-2.4
		c5.3-2.9,6.9-7.7,8-12.5c2.2-9.5,4.5-19,5.8-28.5c0.8-5.7,0-11.7-0.7-17.5c-0.7-5-2.4-9.9-3.7-14.8c-0.5-1.9-1.8-3.3-4.1-3.5
		c-2.6-0.2-5.3-0.2-8,0c-3.7,0.2-7.7-0.1-11.2,0.9c-6,1.7-12,1-18,1.2c-12.7,0.5-25.5,0.3-38.3,0.3c-4.7,0-9.4-0.5-14.1-0.8
		c-3.1-0.2-6.2-0.6-9.3-0.8c-1.5-0.1-3.1-0.5-4.3,0.9c-0.3,0.4-1.5,0.6-2.2,0.5c-2.1-0.3-3.7-0.1-4.7,1.7C30.3,85,29.8,85,29.3,85
		c0.1-0.6,0.2-1,0.4-1.8c-1,0.4-2,0.5-2.5,0.9c-2.3,1.9-4.1,4.1-4.9,6.9c-0.6,2.1-2.1,4.1-2.7,6.3c-1.9,6.6-2.3,13.4-2.6,20.2
		c-0.1,2.2-0.7,4.4-0.1,6.5c0.9,3.2,0.8,6.3,0.8,9.4c0,2.1,1.4,4.3,2.4,6.3c2.2,4.6,3.7,9.7,7.1,13.5c2.7,3.1,5.2,6.8,10.5,8.4
		c6,1.7,12,3,18.1,4c10.5,1.7,21.1,1.7,31.8,1.1c0.9-0.1,1.9,0,2.8-0.2c2.1-0.3,4.3-0.7,6.4-1c1.1-0.2,2.1-0.5,3.2-0.5
		c6.5,0.3,12.6-1.3,18.9-2.3c1.5-0.2,2.9-0.8,4.3-0.8c1.9,0,3.7,0.4,5.6,0.5c0.4,0,0.8-0.2,1.2-0.4c0.8-0.3,1.6-0.6,2.8-1.1
		c-0.4,0.8-0.7,1.3-0.9,1.8c0.1,0.1,0.3,0.3,0.4,0.4c1.7-1,3.5-1.9,4.9-3.1c1.5-1.2,2.7-2.8,4.1-4.2c4.1-4.3,4.7-9.7,6-14.8
		c1.3-5.1,1.9-10.2,2.9-15.5c0.1,0,0.6,0,0.9,0c-0.1,0.7-0.3,1.4-0.4,2.1c-0.5,4.2-0.9,8.5-1.3,12.7c-0.1,0.8,0.1,1.6,0.5,2.3
		c0.7,1.4,0.2,2.5-1.4,2.9c-1.4,0.4-1.8,3.1-0.7,4.3c0.4,0.4,0.5,1.1,0.7,1.6c-0.2,0.1-0.4,0.1-0.5,0.2c-0.4-0.3-0.8-0.5-1.2-0.8
		c-2.1,3.7-3.6,7.5-6.2,10.7c-2.1,2.5-4.4,5.3-8.7,6c-2,0.3-3.8,1.3-5.7,1.7c-3.8,0.9-7.7,1.7-11.6,2.6c-1.5,0.3-3.1,0.7-4.6,0.8
		c-7.2,0.7-14.4,1.4-21.6,2.1c-0.5,0-0.9,0.1-1.4,0.1c-5.2-0.1-10.4-0.1-15.5-0.3c-3.4-0.1-6.8-0.6-10.2-0.8c-2.3-0.1-4.7,0.1-7,0
		c-3.3-0.2-6.8-0.2-10-1c-4.3-1.1-8.3-2.8-12.5-4.2c-0.4-0.1-0.7-0.5-0.9-0.8c-2.2-2.7-4.4-5.4-6.5-8c1.8,7.3,9.3,10.9,15.4,15.6
		c-0.2,0.1-0.3,0.3-0.5,0.4c-1.1-0.7-2.2-1.4-3.4-2.2c-0.1,0.4-0.1,0.7-0.2,1.3c-1.8-1.2-3.5-2.3-5.1-3.4c-1.2,1.4-0.8,2.4,1.5,3.6
		c1,0.5,1.8,1.2,2.8,1.8c-0.2,0.2-0.5,0.5-0.7,0.7c-2.9-2.4-5.9-4.7-8.7-7.1c-1.8-1.6-3.2-3.6-5.1-4.9c-2-1.4-2.5-3.2-2.7-5
		c-0.4-3.3-1.7-6.6,0.6-10c1.5,1.9,2.8,3.6,4.1,5.3c0-2,0-4,0-6.1c-0.5,0.1-0.9,0.2-1.4,0.3c0-0.8,0.3-1.7-0.1-2.2
		c-0.6-1-1.8-1.7-2.4-2.6c-1.2-1.7-1-3.2,0.8-5.2c-1.5-0.1-2.8-0.4-1.5-2.1c0.2-0.3-0.6-1.2-1-1.9c0,0-0.6,0.2-1.1,0.4
		c-0.2-1.7-0.4-3.5-0.6-5.7c-1,1.4-2.1,2.3-0.6,3.6c0.5,0.5,0.6,1.3,0.7,2c0.6,2.4,1,4.9,1.9,7.3c0.8,2.1-0.4,3-2.8,3.9
		c-0.2-1.2-0.3-2.3-0.6-3.3c-0.6-2.9-1.2-5.8-1.8-8.7c-0.2-1-0.3-2-0.3-2.9c0-1.2,0.3-2.3,2.5-2.1c-0.7-0.7-1.4-1.4-2.1-2.1
		c0.1-0.1,0.2-0.2,0.3-0.3c0.6,0.3,1.2,0.6,1.8,0.9c0.2-0.1,0.4-0.1,0.6-0.2c-0.5-1-0.9-2-1.4-3c-0.2,0.1-0.4,0.1-0.6,0.2
		c-0.2,0.5-0.3,1.1-0.5,1.6c-0.2,0-0.4,0-0.7,0c-0.3-2.5-0.5-5.1-0.8-7.6c0.2,0,0.5-0.1,0.7-0.1c0.5,0.5,1,1,1.9,1.8
		c0.2-1.9,0.4-3.3,0.6-4.8c0.5-5.2,0.8-10.4,1.3-15.5c0.1-1.3,0.5-2.6,2.2-3.3c0.6-0.2,1-2.1,0.6-2.3c-1.9-1.3-1.3-3-1.4-4.6
		c0-0.2-0.1-0.5-0.5-0.7c-0.2,0.8-0.4,1.6-0.6,2.4c-0.7,3.3-1.3,6.6-2,9.9c-0.1,0.5-0.8,0.9-1.3,1.4c-0.3-0.5-0.8-1-0.8-1.5
		c-0.1-3.8-0.3-7.6-0.2-11.5c0.1-3.7,0.5-7.5,0.7-11.2c0.2-3.1,0.5-6.2,3.6-8.3c3.1-2.2,3.5-5.2,3.7-8.3c0.3-5.6,1.9-10.8,5-15.8
		c1.8-2.9,2.6-6.3,4.5-9.1c3.7-5.6,8.1-10.8,13.8-15.2c2.9-2.3,6-4.4,9.2-6.5c1.4-0.9,3.2-1.2,4.7-1.9c3.6-1.7,7.4-2.7,11.5-3.4
		c6.3-1,12.6-1.7,19.1-1.6c3.6,0.1,6.9,0.9,10,2.4c0.5,0.2,0.6,1,0.9,1.6l0.1-0.1c-1.3,0.3-2.6,0.6-2.7-1.1c-2.2,0.4-2.9,1.2-2,2.9
		c0.3,0.6,0.1,1.4,0.1,2.2c-0.3,0-0.6,0-1,0c-0.2-0.6-0.1-1.3-0.5-1.6c-0.4-0.4-1.3-0.3-1.9-0.5c-0.1,0.2-0.2,0.3-0.2,0.5
		c0.6,0.3,1.2,0.7,1.8,1c-0.4,0.4-0.5,0.4-3.6-0.5c0.1-0.8,0.1-1.5,0.2-2.1c-2-0.2-3.7-0.3-5.7-0.5c0.2,0.9,0.4,1.7,0.5,2.4
		c0.9-0.2,1.8-0.6,2.8-0.6c0.8,0,1.5,0.4,2.3,0.7c-0.2,0.8-0.4,1.5-0.5,2.3c-0.1,0.6,0.1,1.2,0.2,2c-0.1,0-0.7,0.1-1.1,0.1
		c-0.4-1.4-0.7-2.7-1.1-4c-0.2,0-0.4-0.1-0.6-0.1c-0.3,0.5-0.6,1.1-0.9,1.6c0.4,0.1,0.9,0.1,1.1,0.2c0.1,0.8-0.1,2,0.3,2.2
		c1.1,0.4,2.4,0.3,3.7,0.4c0.6,0,1.2-0.2,1.7-0.2c0.1,0,0.4,0.8,0.4,0.8c-0.5,0.2-1.1,0.3-1.6,0.6c-1.4,0.9-2.7,1.8-4.4,2.9
		c2.1,0.5,2.6,1.1,1.3,2.3c-0.7,0.6-1.4,1.6,0.4,1.7c0.3-0.9,0.7-1.8,1-2.6c0.2,0,0.5,0.1,0.7,0.1c-0.4,2.9-0.8,5.7-1.2,8.6
		c1.1,0.2,2,0.4,3.5,0.8c-2.6,1.2-4.6,2.2-6.8,3.2c0-0.6,0-1.1,0-1.7c-0.8,0.7-1.4,1.3-2.1,1.9c-1.1-1.8-2.7-0.3-3.2,0.1
		c-2.4,1.6-5.3,1.7-8,2.3c-1.8,0.3-2.5,1.2-2.9,3.3c1-0.9,1.5-1.3,2.1-1.9c0.9,0.8,2.3,0.9,3.2-0.3c1-1.4,1.7-0.5,2.1-0.2
		c1.8-0.5,3.3-0.9,4.8-1.3c0.2,0.1,0.3,0.3,0.5,0.4c-0.3,0.4-0.6,0.9-1,1.1c-3,0.8-6,1.6-9,2.3c-0.7,0.2-1.4,0.2-2.7,0.5
		c0.7,1.9,1.5,4,2.2,6.1c0.2,0,0.4-0.1,0.6-0.1c0.2-0.5,0.4-0.9,0.6-1.4c0.2,0.1,0.4,0.1,0.4,0.1c-0.6,1.5,3.5,1.1,1.5,3.2
		c-0.4-0.4-0.7-0.8-0.8-0.9c-0.7,0.4-1.3,0.7-1.9,1c-0.2-0.6-0.4-1.3-0.6-1.9c-0.3,0-0.5,0.1-0.8,0.1c0,1.4-2.8,1.7-1.5,3.7
		c0.3-0.4,0.6-0.7,0.8-1c1.2,1.4,2.2,1.1,3.8,0.1c1.2-0.8,3.1-1,4.8-1.1c3.3-0.2,6.7,0,10.1,0.2c-8.6-0.6-16.4,2.5-24.6,3.6
		c0,0.3,0.1,0.7,0.1,1c5.5,0,11.1,0,16.6,0c0,0.4,0,0.8,0,1.2c-1.9,0-3.8-0.1-5.7,0c-2.4,0.2-4.8,0.4-7.2,0.8
		c-0.4,0.1-0.6,0.9-1,1.5c-0.5-0.3-0.8-0.6-1.4-1c0,0.4,0,0.9,0,0.9c1.9,0.2,3.7,0.4,5.6,0.4c0.5,0,1-0.7,1.3-1
		c0.7,0.2,1.6,0.6,2.5,0.7c2,0.2,4,0.1,6,0.2c0.9,0.1,1.7,0.4,2.8,0.7c0.1-0.1,0.4-0.4,0.3-0.4c1.8,0.2,3.3,0.5,4.7,0.5
		c6,0.1,12.1,0,18.3,0c0,0.2,0.1,0.7,0.2,1.7c0.8-0.8,1.3-1.3,1.8-1.9c3.2-0.1,4.1,0.1,5.3,1.9c0.3-0.6,0.5-1.1,0.9-1.8
		c1.4,1.6,2.9,0.3,4.2,0.3c2.4,0.1,4.7-1.2,7.1-0.4c-0.1,0.1-0.3,0.3-0.4,0.4c0.9,0.5,1.7,1,2.6,1.5c0.1-0.1,0.3-0.2,0.4-0.3
		c-0.2-0.4-0.4-0.7-0.6-1.1c0.2-0.1,0.4-0.2,0.5-0.1c0.8,0.4,1.9,1.4,2.3,1.2c0.8-0.3,1.3-1.3,1.9-2.1
		C131.4,62.6,131.9,62.7,132.4,62.8z M56.6,56c6.1,0.1,8.4-0.4,8.8-1.8c-1,0.1-2.2,0.5-3,0.2c-2.9-1-5.9,0.4-6.6,3.4
		c0.9-0.1,1.7-0.1,3.1-0.3C57.8,56.8,57.4,56.5,56.6,56z M65.6,49.5c-2,0-3.5,0-5,0c-3,0.1-4.4,2.3-6.5,3.5c0.1,0.2,0.1,0.4,0.2,0.5
		c2.4-0.7,4.9-1.3,7.3-2c0-0.1-0.1-0.3-0.1-0.4c-0.7,0-1.4,0-2.7,0c2.3-1,3.9-1.4,5.2,0.5C64.6,50.9,64.9,50.5,65.6,49.5z
		 M66.4,45.3c-1.8,0.7-3.2,1.3-4.5,1.9c1.4,0.7,2.7,1.3,4.1,2C66.1,48,66.2,46.8,66.4,45.3z"/>
	<path class="st0" d="M32.6,181.9c1.7,2,3.8,3.4,6.4,4.5c2.4,1.1,4.9,2.5,6.6,4.3c0.9,0.9,0.6,3,0.4,4.5c-0.2,1.4-1.7,0.8-2.6,0.5
		c-2.2-0.9-4.4-2-6.6-2.9c-1.1-0.4-2.4-0.5-3.8-0.8c-1.1-2.9-0.6-3.9,2.8-3.7c-1.5-0.9-2.6-1.7-4.1-2.6c0,0.8,0,1.2,0,1.5
		c-0.7-0.4-1.3-0.7-2.2-1.2c0.6,0.9,1,1.5,1.4,2.1c-0.1,0.1-0.3,0.3-0.4,0.4c-1.2-0.6-2.6-1.1-3.6-1.9c-4.7-3.7-9.4-7.4-13.7-11.4
		c-1.8-1.7-2.8-4.1-3.9-6.4c-1.1-2.2-0.1-3.5,3.1-4.6c-5.2-2-3.6-6.1-3.8-9.4c-0.1-1.9,1.8-4.1,3.4-5.7c0.9-0.9,3.1-0.8,4.7-1.1
		c0.1,0,0.7,0.8,0.6,1.1c-0.2,0.9-0.5,1.8-1,2.6c-2,2.8-1.6,6-1.5,9c0,1.6,0.2,3.3,0.3,4.9c0,3.2,2.7,5.5,4.6,7.8
		c1.3,1.7,3.6,2.9,5.6,4.2c1.4,0.9,3,1.7,4.5,2.5C30.5,180.6,31.6,181.2,32.6,181.9z"/>
	<path class="st0" d="M100.1,190.3c20.4-4.1,36.2-13.6,47.7-28.6c0.9,1,0.6,2.2-0.3,3.3c-2.2,2.7-4.3,5.6-7,7.9
		c-4.9,4.3-10.1,8.3-15.3,12.4c-1.2,1-3,1.6-4.6,2c-4.7,1.4-9,4-14.3,3.3c-0.6-0.1-1.4,0.2-2,0.4C101.9,192,101.9,192,100.1,190.3z"
		/>
	<path class="st0" d="M153.5,97.6c-0.9-3.5-2-6.9-1.1-10.5c0.7-2.8-0.9-6.5-3.3-8.3c-0.6-0.5-4-1.7-0.4-3.1
		c-0.2-1.6-0.3-3.2-0.6-4.8c-0.3-1.5-0.9-2.9-1.5-4.5c0.9,0,1.2-0.1,1.3-0.1c2.3,2.2,5.4,3.7,5.4,7.5c0,6.7,0.8,13.4,1.2,20.1
		c0.1,1.2,0,2.4,0,3.6C154.1,97.6,153.8,97.6,153.5,97.6z"/>
	<path class="st0" d="M35.6,193.9c0.7,0.1,1.6,0,2,0.4c3.3,2.9,7.8,3.6,12,5.1c4.9,1.7,9.9,1.8,15,2.6c0.7,0.1,1.4,0.4,2.3,0.6
		c0.1-0.7,0.2-1.3,0.3-1.8c0.2,0,0.4,0.1,0.4,0.1c0,1.8,2.2,1.1,3,2c0.9-1.1,1.4,0.3,2.2,0.3c0.6,0,1.2,0.3,2,0.6
		c-0.4,1.3-1.8,1.9-3.6,1.5c-2.6-0.5-5.2-0.9-7.9-1.3c-3.9-0.5-7.9-0.7-11.7-1.6c-4.5-1.1-9.1-2.4-12.7-5.3
		c-1.1-0.9-2.4-1.6-3.6-2.4C35.4,194.3,35.5,194.1,35.6,193.9z"/>
	<path class="st0" d="M32.6,181.9c-1-0.6-2-1.3-3-1.9c-1.1-1.4-2.1-2.8-3.3-4.1c-2.2-2.2-4.6-4.3-6.7-6.6c-0.6-0.6-0.4-1.7-0.3-2.6
		c7.2,7.9,16,14,26.6,18.3c-0.2,0.2-0.3,0.5-0.5,0.7C41,184.4,36.8,183.1,32.6,181.9z"/>
	<path class="st0" d="M48.6,192.1c3.5-0.5,18.4,2.4,19.8,4c-2.6-0.3-4.9-0.6-7.3-0.8c-0.5,1.9-2.4,0.6-4.1,0.5
		c0.7,0.9,1.3,1.5,2.2,2.7c-1.9-0.5-3.4-0.9-4.9-1.3c-0.9-0.2-1.8-0.4-2.6-0.7c-1.4-0.4-3-0.8-2.6-2.6
		C49.1,193.3,48.8,192.7,48.6,192.1z"/>
	<path class="st0" d="M7.4,114.9c-2.6-0.2-3.4-1.5-3.3-3.2c0.2-2.9,0.5-5.8,0.7-8.7c0.1-1-0.1-2.1-0.3-3.1c-0.5-2.5,0.8-3.7,4.1-3.7
		c-2.4,1.4-2.3,3.4-1.8,5.3c0.3,0.9,0.8,2.1,1.6,2.5c1.7,0.8,1.6,1.7,1.2,3.3c-1.2-0.5-2.2-0.9-3.4-1.5c0.7,1,1.3,1.9,2.2,3.2
		c-1.4-0.6-2.2-0.9-2.9-1.2c0,1.3,0,2.6,0,4c0.5,0,1.2,0.1,1.9,0.1c0,0.2,0,0.3,0,0.5c-0.7,0-1.4,0.1-2.4,0.1
		C6,113.4,6.7,114.1,7.4,114.9z"/>
	<path class="st0" d="M151.2,173.7c-0.3,0.8-0.4,1.7-0.9,2.2c-2.7,2.7-5.4,5.3-8.2,7.8c-3.8,3.3-7.5,6.8-11.7,9.8
		c-3.6,2.5-7.8,4.6-12.4,4.9c3.4-1.5,7.4-2.5,10.5-4.7c4.5-3.2,8.4-7,12.5-10.7c2.6-2.3,5-4.8,7.5-7.3c0.7-0.7,1.4-1.5,2-2.3
		C150.7,173.7,150.9,173.7,151.2,173.7z"/>
	<path class="st0" d="M134.9,172.6c-0.5-0.4-0.9-1.2-1.4-1.2c-0.5-0.1-1.2,0.6-1.9,0.9c-1.2,0.2-2.8,0.7-4.4,0.9
		c-2.7,0.4-4.9,2.4-8.1,1.8c6.4-2.5,12.7-5.1,19-7.6c0.1,0.5,0.3,1.3,0.4,1.8C137.2,170.4,136,171.5,134.9,172.6z"/>
	<path class="st0" d="M160.9,116.6c0.6,10.3,1.1,20.6,1.7,30.9c-0.3,0-0.5,0-0.8,0c-0.7-10.3-1.4-20.6-2.1-31
		C160.1,116.6,160.5,116.6,160.9,116.6z"/>
	<path class="st0" d="M92.2,66.6c8.6-0.8,17.2-1,25.7,0.4c0,0.3,0,0.7,0,1C109.3,66.4,100.7,66.7,92.2,66.6z"/>
	<path class="st0" d="M93.3,190.2c-1.4,0.2-2.8,0.4-4.2,0.6c0,0.1,0,0.2,0,0.3c2.9,0,5.8,0,8.7,0c0,0.2,0,0.3,0,0.5
		c-3.7,0.4-7.3,0.9-11,0.2c-0.1-0.3-0.1-0.6-0.2-0.9c1.9-0.4,3.9-0.8,5.8-1.1c0-0.4-0.1-0.7-0.1-1c0.4,0.3,0.9,0.6,1.3,0.9
		C93.4,189.8,93.4,190,93.3,190.2z"/>
	<path class="st0" d="M90.8,186.4c0.9,0.1,1.7,0.3,2.9,0.5c-3.2,0.8-3.9,0.5-3.3-1.6c-1.3,0-2.5,0-3.7,0c0-0.2,0-0.3,0-0.5
		c2.9-0.2,5.8-0.5,9.1-0.8C94.9,186.5,92.1,185,90.8,186.4z"/>
	<path class="st0" d="M70.5,190.3c0.2,0.3,0.5,0.7,0.7,1c-0.1,0.1-0.3,0.2-0.4,0.3c-0.8-0.4-1.5-0.7-2.3-1.1c0-0.2,0.1-0.4,0.1-0.6
		c1.4,0,2.9,0,4.3,0c2.2,0.1,4.3,0.1,6.5,0.3c0.6,0,1.1,0.5,1.6,0.9c0.1,0.1-0.4,0.9-0.6,0.9c-0.6,0-1.2-0.3-1.9-0.4
		c-1.4-0.3-2.8-0.7-4.2-1C73,190.4,71.7,190.4,70.5,190.3z"/>
	<path d="M132.4,62.8c-0.5-0.1-1-0.2-1.5-0.3c1-1.4,2.1-2.8,3.2-4.2C136.7,61.1,136.4,61.8,132.4,62.8z"/>
	<path class="st0" d="M75,69.4c-6,0-12,0-17.9,0c0,0,0.2-0.6,0.5-0.9c0.2-0.2,0.8-0.2,1.2-0.4c0,1.7,1.7,1.1,2.4,1
		c3.2-0.2,6.4-0.8,9.5-1c1.4-0.1,2.8,0.4,4.2,0.6C75,68.9,75,69.2,75,69.4z"/>
	<path class="st0" d="M64.4,182.1c5.7-0.2,11.4,2.3,17.2,0.3C79.4,184,66,183.6,64.4,182.1z"/>
	<path class="st0" d="M154,117.2c-0.5,0.3-0.8,0.6-1.1,0.8c-0.1-0.2-0.2-0.3-0.2-0.4c0.5-0.4,1.1-0.8,1.6-1.2
		c1.6,1.6,3.5-0.6,5.3,0.5c-1.3,0.7-2.6,1.5-4.1,2.3C155,118.6,154.6,118,154,117.2z"/>
	<path class="st0" d="M100.8,182.4c-4.8,1.3-9.7,1.1-14.6,0.7c2.4,0,4.9,0.2,7.3,0c2.4-0.2,4.7-0.8,7.1-1.2
		C100.7,182,100.7,182.2,100.8,182.4z"/>
	<path class="st0" d="M79.9,184.8c-1.8,0.3-3.5,0.6-5.7,0.9c1.3,0.2,2.2,0.3,3.2,0.4c-0.2,0.3-0.4,0.4-0.4,0.4
		c-1.1-0.3-2.2-0.7-3.3-1c1.2-0.3,2.3-0.8,3.5-1c0.8-0.2,1.8,0,2.6,0C79.8,184.5,79.9,184.6,79.9,184.8z"/>
	<path class="st0" d="M89.1,194.6c4.2-0.4,8.7-0.7,12.7-1.1C100.6,194.5,93.6,195.3,89.1,194.6z"/>
	<path class="st0" d="M65.4,192c3.9,0.9,7.9,1.9,11.9,2.8C72.9,195.2,69.2,193.5,65.4,192z"/>
	<path class="st0" d="M97.1,13.8c0.4-0.3,0.9-0.6,1.5-1c0.2,0.7,0.4,1.2,0.6,2c0.5-0.5,0.9-0.8,1.7-1.6c-0.1,1.3-0.2,2-0.2,2.5
		c-1,0.4-1.9,0.8-2.7,1.1C97.7,15.9,97.5,14.8,97.1,13.8C97.2,13.8,97.1,13.8,97.1,13.8z"/>
	<path class="st0" d="M68.2,185.4c1.2,0,2.4,0,3.6,0c0,0.1,0,0.1,0,0.2c-0.8,0.1-1.5,0.1-2.7,0.2c2.7,0.4,5.1,0.8,7.4,1.2
		c-0.1,0.2-0.1,0.5-0.2,0.7c-2.8-0.6-5.6-1.1-8.4-1.7C68,185.9,68.1,185.7,68.2,185.4z"/>
	<path class="st0" d="M156.1,89.1c0,2.3,0,4.7,0,7c-0.2,0-0.3,0-0.5,0c0-2.3,0-4.7,0-7C155.8,89.1,156,89.1,156.1,89.1z"/>
	<path class="st0" d="M45.3,188c3.5,0.5,4.3,1.7,2.4,3.8C46.9,190.5,46.1,189.3,45.3,188z"/>
	<path class="st0" d="M149.2,83.1c0,1.8,0,3.6,0,5.4c-0.2,0-0.4,0-0.6,0c0-1.8,0-3.6,0-5.4C148.8,83.1,149,83.1,149.2,83.1z"/>
	<path class="st0" d="M100.2,35.1c0.7,1.1,1.4,2.2,2.1,3.3c-0.1,0.1-0.4,0.5-0.5,0.6c-0.8-0.6-1.7-1.3-2.7-2.1
		C99.4,36.5,99.8,35.8,100.2,35.1z"/>
	<path class="st0" d="M89.1,32.3c1,0.2,1.6,0.4,2.1,0.5c-0.1,0.2-0.1,0.5-0.2,0.7c-0.9-0.2-1.9-0.3-2.6-0.8
		c-0.4-0.2-0.5-1.3-0.2-1.6c0.5-0.5,1.4-0.6,2.2-0.9c0.1,0.2,0.2,0.3,0.3,0.5C90.2,31.1,89.8,31.6,89.1,32.3z"/>
	<path class="st0" d="M79.2,187.2c1.4-1.1,2.8-2.2,4.1-3.2C82.8,187,81.9,187.6,79.2,187.2z"/>
	<path class="st0" d="M89.6,188.1c-1.2,0.4-2.4,2.2-3.8,0C87.2,188.1,88.4,188.1,89.6,188.1z"/>
	<path class="st0" d="M94.7,18.5c-0.1-1.6-0.2-2.7-0.2-3.8c0.1-0.1,0.2-0.2,0.3-0.2c0.4,0.7,1.1,1.4,1.2,2.1
		C96,17.1,95.2,17.8,94.7,18.5z"/>
	<path class="st0" d="M128.7,50.8c0.1,1.2,0.3,2.9,0.4,4.5c0,0.3-0.2,0.6-0.4,0.9c-0.1,0.1-0.7,0.1-0.8,0c-0.2-0.2-0.3-0.6-0.3-0.8
		C127.9,53.7,128.4,52,128.7,50.8z"/>
	<path class="st0" d="M79.9,201.9c0-1.6,0-3.2,0-4.8c0.1,0,0.2,0,0.3,0c0,1.6,0,3.2,0,4.8C80.2,201.9,80,201.9,79.9,201.9z"/>
	<path d="M56.6,56c0.8,0.5,1.2,0.8,2.3,1.5c-1.4,0.1-2.3,0.2-3.1,0.3c0.7-3,3.7-4.3,6.6-3.4c0.8,0.3,2-0.1,3-0.2
		C65,55.6,62.7,56.1,56.6,56z"/>
	<path d="M65.6,49.5c-0.7,1-1.1,1.4-1.5,2c-1.3-1.9-3-1.4-5.2-0.5c1.3,0,2,0,2.7,0c0,0.1,0.1,0.3,0.1,0.4c-2.4,0.7-4.9,1.3-7.3,2
		c-0.1-0.2-0.1-0.4-0.2-0.5c2.1-1.2,3.6-3.4,6.5-3.5C62.1,49.5,63.6,49.5,65.6,49.5z"/>
	<path d="M87.1,16.6c-0.8-0.2-1.5-0.7-2.3-0.7c-0.9,0-1.8,0.4-2.8,0.6c-0.2-0.8-0.3-1.5-0.5-2.4c2,0.2,3.8,0.3,5.7,0.5
		C87.2,15.1,87.1,15.9,87.1,16.6C87,16.6,87.1,16.6,87.1,16.6z"/>
	<path d="M66.4,45.3c-0.2,1.5-0.3,2.7-0.4,3.9c-1.4-0.7-2.7-1.3-4.1-2C63.2,46.6,64.6,46.1,66.4,45.3z"/>
	<g>
		<path d="M84.9,107.4c-2.6,0.8-5,1.5-7.5,2.3c-0.3-0.7-0.6-1.3-1-1.9c-0.1,0-0.2,0-0.3,0.1c0,2.6-0.1,5.1,0,7.7
			c0.2,3.2,0.7,6.4,1.1,9.6c0.1,1,0.3,1.1-1.1,1.1c-7.9,0.1-15.9,0.1-23.8,0.1c-1.1,0-2.2-0.2-3.1-0.3c0.5-6.1,0.9-12.2,1.4-18.2
			c-0.2,0-0.3-0.1-0.5-0.1c-0.2,0.2-0.5,0.4-0.7,0.7c-0.2,0.3-0.3,0.6-0.5,0.9c-2.6-0.9-5-1.8-7.6-2.8c0.7-0.9,1.3-1.8,1.9-2.7
			c1.1-2,2.2-4,3.3-5.9c0.4-0.7,1.1-1.2,2.1-1.4c2-0.5,4-1,6-1.5c0.7-0.2,1.3-0.4,1.9-0.7c1.3-0.7,2.6-0.4,3.9-0.3
			c2.4,0,4.7-0.1,7.1-0.1c0.3,0,0.7-0.1,1,0c2.8,1.3,5.9,1.8,9,2.5c1.3,0.3,2.2,0.8,2.8,1.7c0.8,1.3,1.4,2.7,2.1,4
			c0.6,1.2,1.2,2.3,1.7,3.5C84.3,106.2,84.6,106.7,84.9,107.4z M49,96.8c2.1,2.1,2.4,2.4,2.7,3.7c0.5,2,0.5,3.5-0.1,4.2
			c-0.3-2.8,0.2-5.7-3.5-7.6c-2.5,2.5-3.1,5.6-5.2,8.3c2.2,0.9,4.2,1.7,6.2,2.4c0.5-0.4,1-0.8,1.7-1.4c0.1,0.4,0.1,0.5,0.1,0.7
			c0,3-0.1,6.1-0.1,9.1c0,1.9,0,3.8-0.1,5.7c0,0.6-0.1,1.2-0.5,1.8c-0.6,1-0.5,1.4,1,1.4c7,0.1,14.1,0.2,21.1,0.3
			c1.4,0,2.7-0.1,4-0.2c0-6.3-1.5-12.5-0.4-18.7c0.1,0,0.2,0,0.3-0.1c0.4,0.4,0.8,0.8,1.2,1.2c2-0.5,4.1-1.1,6-1.5
			c-0.5-1.4-0.9-2.6-1.5-3.8c-0.7-1.5-1.4-2.9-2.4-4.3c-0.6-0.9-1.4-0.8-2,0c-0.7,1-1.2,2.1-1.6,3.3c-0.3,0.8-0.4,1.7-0.6,2.6
			c-0.2,0-0.3-0.1-0.5-0.1c0.4-2.4,0.3-4.9,3-6.8c-2.6-0.6-5.1-1.2-7.7-1.9c-1.5,2.3-4.2,2.6-7,2.7c-3,0.1-5.6-0.5-7.1-2.6
			C53.7,95.7,51.4,96.3,49,96.8z M56.9,94.7c1.3,2.1,3.7,2.5,6.2,2.5c2.5,0,5-0.3,6.3-2.4c-0.4-0.1-0.7-0.3-1-0.4
			c-1.8,2.6-7.8,2.6-10.4,0C57.6,94.4,57.3,94.6,56.9,94.7z M67.7,94.5c-3,0-5.9,0-8.7,0c0.8,1.1,2.3,1.2,5.4,1.1
			C65.6,95.5,67,95.6,67.7,94.5z M49.9,125.6c7.8,0.9,15.7,0.4,22.9,0.4C65.6,125.8,57.7,125.7,49.9,125.6z M77.4,108.3
			c0,0.1-0.1,0.2-0.1,0.3c0.2,0.1,0.5,0.3,0.7,0.3c2.1-0.6,4.1-1.2,6.1-1.9c0-0.1-0.1-0.2-0.1-0.3C81.7,107,79.6,107.8,77.4,108.3z
			 M48.8,108.6c0.1-0.1,0.1-0.2,0.2-0.3c-2.1-0.8-4.1-1.6-6.2-2.4c-0.1,0-0.4,0.1-0.8,0.2C44.4,107,46.6,107.8,48.8,108.6z"/>
		<path class="st0" d="M49,96.8c2.4-0.6,4.7-1.1,7.1-1.7c1.5,2.1,4.1,2.7,7.1,2.6c2.9-0.1,5.6-0.4,7-2.7c2.5,0.6,5.1,1.2,7.7,1.9
			c-2.7,1.9-2.6,4.4-3,6.8c0.2,0,0.3,0.1,0.5,0.1c0.2-0.9,0.3-1.8,0.6-2.6c0.4-1.1,0.9-2.2,1.6-3.3c0.5-0.9,1.4-0.9,2,0
			c0.9,1.4,1.7,2.9,2.4,4.3c0.6,1.2,1,2.5,1.5,3.8c-1.9,0.5-4,1-6,1.5c-0.4-0.4-0.8-0.8-1.2-1.2c-0.1,0-0.2,0-0.3,0.1
			c-1.1,6.2,0.4,12.4,0.4,18.7c-1.2,0.1-2.6,0.2-4,0.2c-7-0.1-14.1-0.2-21.1-0.3c-1.5,0-1.6-0.3-1-1.4c0.3-0.5,0.4-1.2,0.5-1.8
			c0.1-1.9,0.1-3.8,0.1-5.7c0.1-3,0.1-6.1,0.1-9.1c0-0.1,0-0.3-0.1-0.7c-0.6,0.5-1.1,0.9-1.7,1.4c-2-0.8-4-1.6-6.2-2.4
			c2.1-2.7,2.7-5.8,5.2-8.3c3.7,1.9,3.2,4.8,3.5,7.6c0.6-0.7,0.6-2.2,0.1-4.2C51.3,99.3,51.1,99,49,96.8z"/>
		<path class="st0" d="M56.9,94.7c0.4-0.1,0.7-0.3,1.1-0.4c2.6,2.6,8.6,2.7,10.4,0c0.3,0.1,0.7,0.3,1,0.4c-1.3,2.1-3.8,2.4-6.3,2.4
			C60.6,97.2,58.2,96.8,56.9,94.7z"/>
		<path class="st0" d="M67.7,94.5c-0.7,1.1-2.1,1.1-3.3,1.1c-3.1,0.1-4.7,0-5.4-1.1C61.8,94.5,64.7,94.5,67.7,94.5z"/>
		<path class="st0" d="M49.9,125.6c7.8,0.1,15.7,0.2,22.9,0.4C65.6,125.9,57.7,126.5,49.9,125.6z"/>
		<path class="st0" d="M77.4,108.3c2.2-0.5,4.3-1.3,6.6-1.7c0,0.1,0.1,0.2,0.1,0.3c-2,0.6-4.1,1.3-6.1,1.9c-0.2,0-0.5-0.2-0.7-0.3
			C77.3,108.5,77.3,108.4,77.4,108.3z"/>
		<path class="st0" d="M48.8,108.6c-2.2-0.8-4.3-1.6-6.8-2.5c0.4-0.1,0.6-0.3,0.8-0.2c2.1,0.8,4.1,1.6,6.2,2.4
			C48.9,108.4,48.8,108.5,48.8,108.6z"/>
	</g>
	<g>
		<path class="st0" d="M61.9,135.6c1.4,0,2.8,0,4.2,0c0.2,0,0.3,0,0.4,0.2c0.9,2.2,3,3.5,5.6,4.3c0.8,0.2,1.7,0.4,2.5,0.5
			c0.2,0,0.3,0.2,0.3,0.3c0.3,1.5,0.7,2.9,1,4.4c0.4,1.8,0.8,3.6,1.1,5.4c0.2,1.1,0.3,2.2,0.5,3.3c0.1,0.3-0.1,0.5-0.5,0.6
			c-1.6,0.5-3.3,0.8-5,0.9c-2.3,0.2-4.6,0.3-6.9,0.5c-0.3,0-0.4-0.1-0.5-0.3c-0.6-2-1.3-4.1-2-6.1c-0.1-0.3-0.3-0.7-0.5-1
			c-0.1-0.2-0.3-0.3-0.4-0.4c-0.1,0.1-0.3,0.3-0.4,0.4c-0.3,0.6-0.7,1.3-0.9,1.9c-0.6,1.7-1.1,3.5-1.6,5.2c-0.1,0.2-0.2,0.3-0.4,0.2
			c-1.8-0.1-3.6-0.2-5.5-0.4c-1.8-0.1-3.6-0.4-5.4-0.8c-0.5-0.1-0.9-0.2-1.4-0.4c-0.2-0.1-0.3-0.2-0.3-0.4c0.1-1,0.2-2,0.4-3
			c0.5-2.6,1.1-5.2,1.7-7.8c0.2-0.8,0.4-1.6,0.5-2.4c0-0.2,0.2-0.3,0.5-0.3c2.1-0.3,4.1-0.9,5.8-2c1.1-0.7,1.8-1.6,2.3-2.7
			c0.1-0.2,0.2-0.3,0.5-0.3C59.1,135.6,60.5,135.6,61.9,135.6z"/>
		<path class="st0" d="M73.7,134.8c-8,0-15.8,0-23.8,0c0-0.7,0-1.3,0-1.9c0-0.3,0.2-0.4,0.6-0.4c2.2,0,4.3,0,6.5,0
			c5.3,0,10.6,0,15.9,0c0.6,0,0.7,0.1,0.7,0.6C73.7,133.7,73.7,134.2,73.7,134.8z"/>
		<path class="st0" d="M49.9,135.6c2.1,0,4.2,0,6.3,0c-0.8,2.3-3.9,3.8-7.3,4.2C49.3,138.4,49.6,137,49.9,135.6z"/>
		<path class="st0" d="M67.5,135.6c2.1,0,4.1,0,6.2,0c0.3,1.4,0.7,2.7,1,4.1C72.2,140,67.9,137.5,67.5,135.6z"/>
	</g>
	<g>
		<path class="st0" d="M98.9,136.2c-0.1,0.1-0.3,0.3-0.4,0.4c-1.6,2.1-3.2,4.1-4.8,6.2c-0.6,0.8,0.2,2.1,1.3,2.3
			c0.4,0.1,0.8,0.2,0.7,0.6c-0.1,1.7-0.3,3.4-0.4,5.1c0,0.1-0.1,0.2-0.1,0.4c-1.8-0.6-3.8-1.1-4.9-2.5c-0.3-0.4-0.3-1-0.4-1.5
			c0-0.1,0-0.2,0-0.4c-0.1-1-0.1-1.1,1.2-1.2c0.4,0,0.6-0.2,0.5-0.5c-0.1-0.4-0.2-0.7-0.3-1.1c-0.4-0.9-0.3-1.8,0.3-2.7
			c1.6-2.2,3.2-4.4,4.8-6.6c1.1-1.6,2.2-3.2,3.2-4.8c0.4-0.5,0.7-0.7,1.5-0.6c0.2,0,0.4,0.1,0.6,0.1c0.9,0.1,1.5-0.4,1.6-1.1
			c0.3-1.3,0.6-2.5,1.1-3.8c0.2-0.5,0.6-1,1.1-1.4c0.8-0.7,1.6-0.9,2.7-0.5c0.9,0.4,1.7,0.9,2.5,1.4c0.6,0.4,0.6,1.1,0.4,1.7
			c-0.2,0.8,0.1,1,1.1,1.1c0.4,0,0.8,0.1,1.3,0.2c0,0.1,0,0.2,0,0.2c-0.4,0.1-0.8,0.2-1.2,0.4c-1.9,0.5-3.8,0.9-5.7,1.5
			c-1.4,0.4-2.4,1.2-3.3,2.2c-1.5,1.8-2.2,3.7-2.5,5.8c-0.4,2.5-0.6,5.1-0.2,7.7c0.2,1.1,0.6,2.3,0.9,3.4c0.4,1.4,0.8,2.8,1.2,4.2
			c0.2,0.6,0.5,0.7,1.2,0.7c0.5,0,0.3-0.3,0.3-0.5c-0.3-1.2-0.6-2.3-0.9-3.5c-1-3.7-1.3-7.5-1.1-11.2c0.1-1.8,0.7-3.6,2-5.1
			c0.5-0.7,1.2-1.3,2-1.8c2-1.2,4.2-2.1,6.7-2.7c0.8-0.2,1.5-0.4,2.3-0.7c1.8-0.5,3.4-0.1,4.8,0.6c1.7,0.9,3,2.2,3.7,3.7
			c1.5,3,2.6,6,3.3,9.1c0.4,1.7,0.2,3.4-0.3,5c-0.4,1.4-0.6,2.7-0.4,4.1c0.1,1-0.5,1.7-1.6,2.2c-3.1,1.3-6.3,2.3-9.6,3.1
			c-2.1,0.5-4.3,0.9-6.4,1.3c-1.4,0.2-2.8,0.1-4.2-0.4c-1.6-0.5-3.2-1-4.8-1.5c-1.6-0.5-2.1-1.2-1.9-2.5c0.1-0.5,0-0.8-0.6-1.1
			c-0.1-0.1-0.2-0.3-0.2-0.4c0-1.5-0.1-3.1,0-4.6c0.1-1.9,0.4-3.9,0.5-5.8c0.1-0.7,0.4-1.3,0.9-1.8c0.2-0.2,0.3-0.6,0.2-0.8
			c-0.3-0.6-0.2-1.2,0.2-1.8c0.1-0.1,0.1-0.2,0.1-0.4C99,136.2,98.9,136.2,98.9,136.2z M125.8,144.1c-0.2-1.5-0.4-2.8-0.6-4.1
			c-0.1-0.7-0.2-0.7-1.1-0.6c-5.1,1-10.2,1.9-15.3,2.9c-1.5,0.3-1.6,0.4-1.6,1.6c0,0.1,0,0.2,0,0.2c0.5,1.8,0.9,3.7,1.5,5.5
			c0.3,1,0.5,1.1,1.9,1c2.7-0.2,5.4-0.3,8.1-0.6c1.7-0.2,3.4-0.5,4.9-1.3c0.8-0.4,1.5-1,1.6-1.8C125.5,146,125.7,145,125.8,144.1z
			 M119.1,133.5c-2.3,0-4.1,0.2-5.9,0.6c-1.9,0.4-3.2,1.4-4,2.7c-0.4,0.6-0.7,1.3-1,1.9c-0.2,0.5-0.1,0.6,0.6,0.5
			c2.2-0.3,4.4-0.6,6.6-0.9c2.7-0.4,5.4-0.8,8-1.2c0.3,0,0.7-0.2,0.7-0.4c0.2-0.8,0.1-1.5-0.7-2.1
			C122,133.7,120.4,133.5,119.1,133.5z M106.4,127c0,0.6,0.1,0.7,0.8,0.5c0.6-0.1,1.2-0.3,1.8-0.4c0.4-0.1,0.6-0.3,0.5-0.6
			c-0.2-0.4-0.3-0.8-0.6-1.2c-0.2-0.2-0.6-0.4-0.9-0.5c-0.5-0.1-0.9,0.2-1,0.6C106.7,125.9,106.5,126.4,106.4,127z"/>
	</g>
	<g>
		<path class="st0" d="M99.6,115.8c0-1,0-2.1,0-3.1c0-1.8,0.1-3.7,0.2-5.5c0.1-1.6,0.2-3.2,0.5-4.7c0.2-1.2,0.9-2.3,1.9-3.1
			c1.1-1,2.4-1.7,3.8-2.3c0.3-0.1,0.6,0,0.8,0c0.5,0,0.9-0.1,1.4-0.3c0.1,0,0.1,0,0.2,0c1.6,0,3.3,0,4.9,0.1
			c1.5,0.1,2.9,0.6,4.1,1.3c1.2,0.6,2.1,1.4,2.8,2.5c0.5,0.8,0.9,1.7,1,2.6c0.1,0.5,0.1,1.1,0.1,1.6c0,2.6,0,5.3,0,7.9
			c0,0.5-0.3,0.8-0.7,1c-0.9,0.5-1.9,0.8-3,1c-1.6,0.3-3.3,0.6-4.9,0.7c-2.6,0.3-5.2,0.5-7.9,0.4c-1.2,0-2.4-0.1-3.6-0.1
			C100.8,115.9,100.2,115.9,99.6,115.8z"/>
		<path class="st0" d="M98.8,115.7c-1.2-0.2-2.3-0.3-3.4-0.6c-0.8-0.2-1.6-0.5-2.4-0.9c-0.5-0.3-1-0.6-1.3-1.1
			c-0.1-0.2-0.2-0.4-0.2-0.6c0-2.2,0-4.5,0-6.7c0-0.8,0.3-1.6,0.6-2.4c0.4-1,0.9-1.9,1.6-2.7c0.9-0.9,1.9-1.7,3.2-2.1
			c1.4-0.5,2.9-0.9,4.4-1.2c1-0.2,2-0.3,3-0.4c0,0,0.1,0,0.2,0c-0.4,0.2-0.7,0.4-1,0.5c-1.1,0.6-2.1,1.4-2.9,2.3
			c-0.6,0.7-1,1.5-1.1,2.4c-0.2,1-0.4,2-0.5,3c-0.2,2.2-0.3,4.4-0.3,6.5c0,1.3,0,2.5,0,3.8C98.8,115.6,98.8,115.6,98.8,115.7z"/>
		<path class="st0" d="M96.8,116.1c0.6,0.1,1.1,0.2,1.6,0.2c0.7,0.1,1.4,0.2,2.1,0.2c1.1,0.1,2.2,0.2,3.3,0.2c1.9,0,3.8-0.1,5.8-0.2
			c1.3-0.1,2.7-0.2,4-0.4c1.6-0.2,3.2-0.4,4.8-0.8c1-0.2,2-0.5,2.8-1c0.2-0.1,0.4-0.3,0.6-0.5c0.2-0.2,0.3-0.5,0.3-0.8
			c0-0.3,0-0.6,0-0.9c0.3,0.1,0.6,0.2,0.8,0.2c1.8,0.5,3.5,1,5.3,1.6c0.8,0.2,1.5,0.6,2.1,1.2c0.6,0.6,0.5,1.1-0.1,1.6
			c-0.6,0.5-1.4,0.8-2.1,1.1c-1.4,0.5-2.9,0.9-4.4,1.2c-1.2,0.2-2.5,0.4-3.7,0.6c-1.8,0.2-3.6,0.3-5.5,0.3c-1,0-2,0-3,0
			c-1.3-0.1-2.7-0.2-4-0.3c-1.4-0.1-2.8-0.4-4.2-0.7c-1.7-0.4-3.4-0.9-5-1.8C97.7,116.8,97.2,116.5,96.8,116.1z"/>
		<path class="st0" d="M106.7,95.8c0.4,0,0.7,0,1,0.1c0.1,0,0.2,0.1,0.3,0.1c0.2,0.2,0.2,0.4-0.1,0.5c-0.7,0.2-1.4,0.2-2.2,0
			c-0.1,0-0.3-0.1-0.3-0.2c0-0.2,0.1-0.3,0.3-0.4C106.1,95.9,106.4,95.8,106.7,95.8z"/>
	</g>
</g>
</svg>
